<svg xmlns="http://www.w3.org/2000/svg" viewBox="0 0 128 128" width="128" height="128">
  <!-- Cube - top face -->
  <polygon points="64,20 108,42 64,64 20,42" fill="#636e72"/>
  <!-- Cube - right face -->
  <polygon points="64,64 108,42 108,98 64,120" fill="#3d4447"/>
  <!-- Cube - left face -->
  <polygon points="64,64 20,42 20,98 64,120" fill="#2d3436"/>
  <!-- Brain outline - large -->
  <path d="M34,55 C26,59 22,68 24,77 C25,84 30,89 36,91 C36,96 39,102 46,105 C52,108 59,107 64,103 C69,107 76,108 82,105 C89,102 92,96 92,91 C98,89 103,84 104,77 C106,68 102,59 94,55 C89,52 82,52 76,54 C72,51 68,50 64,50 C60,50 56,51 52,54 C46,52 39,52 34,55 Z" fill="none" stroke="#d4aaff" stroke-width="4"/>
  <!-- Brain folds -->
  <path d="M38,70 C46,66 54,67 64,72 C74,67 82,66 90,70" fill="none" stroke="#b388ff" stroke-width="3"/>
  <path d="M40,82 C48,78 56,79 64,84 C72,79 80,78 88,82" fill="none" stroke="#b388ff" stroke-width="3"/>
  <path d="M44,93 C52,89 58,90 64,94 C70,90 76,89 84,93" fill="none" stroke="#b388ff" stroke-width="2.5"/>
  <!-- Brain center line -->
  <path d="M64,52 C64,62 64,75 64,101" fill="none" stroke="#b388ff" stroke-width="2.5"/>
</svg>